<?xml version="1.0" encoding="UTF-8" standalone="no"?>
<svg
   xmlns:dc="http://purl.org/dc/elements/1.1/"
   xmlns:cc="http://creativecommons.org/ns#"
   xmlns:rdf="http://www.w3.org/1999/02/22-rdf-syntax-ns#"
   xmlns:svg="http://www.w3.org/2000/svg"
   xmlns="http://www.w3.org/2000/svg"
   viewBox="0 0 471.70932 495.23868"
   height="495.23868"
   width="471.70932"
   xml:space="preserve"
   id="svg2"
   version="1.1"><metadata
     id="metadata8"><rdf:RDF><cc:Work
         rdf:about=""><dc:format>image/svg+xml</dc:format><dc:type
           rdf:resource="http://purl.org/dc/dcmitype/StillImage" /></cc:Work></rdf:RDF></metadata><defs
     id="defs6"><clipPath
       id="clipPath20"
       clipPathUnits="userSpaceOnUse"><path
         id="path18"
         d="M 0,371.429 H 353.781 V 0 H 0 Z" /></clipPath></defs><g
     transform="matrix(1.3333333,0,0,-1.3333333,0,495.23867)"
     id="g10"><path
       id="path12"
       style="fill:#b4bd34;fill-opacity:1;fill-rule:nonzero;stroke:none"
       d="M 80.818,157.415 H 271.565 V 132.262 H 80.818 Z" /><g
       id="g14"><g
         clip-path="url(#clipPath20)"
         id="g16"><g
           transform="translate(95.3705,94.7703)"
           id="g22"><path
             id="path24"
             style="fill:#00726e;fill-opacity:1;fill-rule:nonzero;stroke:none"
             d="M 0,0 -6.452,11.362 -9.696,7.454 V 0 h -4.839 v 24.913 h 3.556 c 0.73,0 1.283,-0.566 1.283,-1.28 v -9.544 l 8.814,10.824 h 5.98 L -3.208,15.012 5.668,0 Z" /></g><g
           transform="translate(114.1566,112.3132)"
           id="g26"><path
             id="path28"
             style="fill:#00726e;fill-opacity:1;fill-rule:nonzero;stroke:none"
             d="m 0,0 -3.208,-9.108 h 6.22 z m 5.784,-17.543 -1.436,4.402 h -8.83 l -1.551,-4.402 h -5.09 l 9.109,24.899 h 2.887 c 0.588,0 1.07,-0.343 1.239,-0.874 l 8.805,-24.025 z" /></g><g
           transform="translate(135.9457,94.5339)"
           id="g30"><path
             id="path32"
             style="fill:#00726e;fill-opacity:1;fill-rule:nonzero;stroke:none"
             d="m 0,0 c -3.805,0 -6.64,0.828 -9.125,3.257 l 3.164,3.181 C -4.375,4.852 -2.255,4.34 0.045,4.34 c 2.878,0 4.411,1.109 4.411,3.128 0,0.819 -0.241,1.572 -0.749,2.036 -0.472,0.513 -1.042,0.745 -2.21,0.928 l -3.012,0.404 c -2.148,0.294 -3.681,0.989 -4.839,2.001 -1.195,1.248 -1.756,2.848 -1.756,4.942 0,4.448 3.28,7.567 8.68,7.567 3.413,0 5.927,-0.852 7.994,-2.889 L 5.543,19.339 c -1.595,1.551 -3.484,1.777 -5.142,1.777 -2.567,0 -3.868,-1.448 -3.868,-3.154 0,-0.674 0.285,-1.306 0.767,-1.815 0.516,-0.431 1.301,-0.841 2.263,-0.944 L 2.521,14.771 C 4.821,14.424 6.22,13.817 7.299,12.837 8.618,11.541 9.232,9.78 9.232,7.562 9.232,2.727 5.213,0 0,0" /></g><g
           transform="translate(149.2152,94.7703)"
           id="g34"><path
             id="path36"
             style="fill:#00726e;fill-opacity:1;fill-rule:nonzero;stroke:none"
             d="m 0,0 v 24.868 h 15.114 c 0.74,0 1.364,-0.594 1.364,-1.297 V 20.585 H 4.848 v -5.894 h 9.875 V 10.342 H 4.848 V 4.345 h 11.63 V 1.292 C 16.478,0.592 15.854,0 15.114,0 Z" /></g><g
           transform="translate(180.2543,115.3552)"
           id="g38"><path
             id="path40"
             style="fill:#00726e;fill-opacity:1;fill-rule:nonzero;stroke:none"
             d="M 0,0 V -20.555 H -4.909 V 0 h -6.489 v 2.986 c 0,0.731 0.589,1.328 1.311,1.328 H 5.161 c 0.731,0 1.318,-0.597 1.318,-1.328 L 6.479,0 Z" /></g><g
           transform="translate(197.8471,94.5339)"
           id="g42"><path
             id="path44"
             style="fill:#00726e;fill-opacity:1;fill-rule:nonzero;stroke:none"
             d="m 0,0 c -3.832,0 -6.657,0.828 -9.073,3.257 l 3.147,3.181 C -4.323,4.852 -2.272,4.34 0.045,4.34 c 2.824,0 4.419,1.109 4.419,3.128 0,0.819 -0.223,1.572 -0.775,2.036 -0.499,0.513 -1.015,0.745 -2.193,0.928 l -2.985,0.404 c -2.138,0.294 -3.725,0.989 -4.848,2.001 -1.229,1.248 -1.773,2.848 -1.773,4.942 0,4.448 3.297,7.567 8.68,7.567 3.368,0 5.872,-0.852 8.03,-2.889 L 5.525,19.339 c -1.587,1.551 -3.494,1.777 -5.132,1.777 -2.568,0 -3.825,-1.448 -3.825,-3.154 0,-0.674 0.214,-1.306 0.713,-1.815 0.49,-0.431 1.337,-0.841 2.345,-0.944 L 2.539,14.771 C 4.875,14.424 6.273,13.817 7.299,12.837 8.617,11.541 9.223,9.78 9.223,7.562 9.223,2.727 5.195,0 0,0" /></g><g
           transform="translate(219.9838,112.3132)"
           id="g46"><path
             id="path48"
             style="fill:#00726e;fill-opacity:1;fill-rule:nonzero;stroke:none"
             d="m 0,0 -3.227,-9.108 h 6.23 z m 5.757,-17.543 -1.453,4.375 h -8.885 l -1.506,-4.375 h -5.045 l 9.028,24.899 h 2.968 c 0.571,0 1.034,-0.37 1.257,-0.874 l 8.707,-24.025 z" /></g><g
           transform="translate(243.6088,115.3552)"
           id="g50"><path
             id="path52"
             style="fill:#00726e;fill-opacity:1;fill-rule:nonzero;stroke:none"
             d="M 0,0 H -4.519 V -6.594 H 0 c 2.112,0 3.537,1.35 3.537,3.311 C 3.537,-1.39 2.112,0 0,0 m 3.778,-20.585 -4.83,9.928 h -3.467 v -9.928 h -4.91 V 4.283 h 9.785 c 5.062,0 8.075,-3.445 8.075,-7.566 0,-3.521 -2.158,-5.713 -4.536,-6.546 l 5.578,-10.756 z" /></g><g
           transform="translate(266.5121,115.3552)"
           id="g54"><path
             id="path56"
             style="fill:#00726e;fill-opacity:1;fill-rule:nonzero;stroke:none"
             d="M 0,0 V -20.536 H -4.84 V 0 h -6.478 v 2.986 c 0,0.731 0.571,1.328 1.337,1.328 H 5.142 c 0.757,0 1.345,-0.597 1.345,-1.328 L 6.487,0 Z" /></g><g
           transform="translate(88.6332,63.1199)"
           id="g58"><path
             id="path60"
             style="fill:#00726e;fill-opacity:1;fill-rule:nonzero;stroke:none"
             d="m 0,0 c -4.581,0 -7.798,3.119 -7.798,7.584 v 15.377 h 1.737 V 7.788 c 0,-3.791 2.425,-6.233 6.061,-6.233 3.689,0 6.113,2.442 6.113,6.233 v 15.173 h 1.72 V 7.584 C 7.833,3.119 4.562,0 0,0" /></g><g
           transform="translate(120.3764,63.2849)"
           id="g62"><path
             id="path64"
             style="fill:#00726e;fill-opacity:1;fill-rule:nonzero;stroke:none"
             d="M 0,0 -13.163,19.779 V 0 h -1.666 v 22.796 h 1.666 L 0,3.048 V 22.796 H 1.711 V 0 Z" /></g><path
           id="path66"
           style="fill:#00726e;fill-opacity:1;fill-rule:nonzero;stroke:none"
           d="m 131.49,86.081 h 1.711 V 63.285 h -1.711 z" /><g
           transform="translate(148.3778,63.2849)"
           id="g68"><path
             id="path70"
             style="fill:#00726e;fill-opacity:1;fill-rule:nonzero;stroke:none"
             d="m 0,0 h -1.47 l -7.513,22.796 h 1.871 L -0.713,3.048 5.641,22.796 h 1.836 z" /></g><g
           transform="translate(162.0477,63.2849)"
           id="g72"><path
             id="path74"
             style="fill:#00726e;fill-opacity:1;fill-rule:nonzero;stroke:none"
             d="M 0,0 V 22.796 H 13.787 V 21.259 H 1.685 v -8.97 H 12.013 V 10.761 H 1.685 V 1.563 H 13.787 V 0 Z" /></g><g
           transform="translate(191.9472,84.5437)"
           id="g76"><path
             id="path78"
             style="fill:#00726e;fill-opacity:1;fill-rule:nonzero;stroke:none"
             d="M 0,0 H -6.693 V -9.251 H 0 c 2.896,0 5.036,1.516 5.036,4.625 C 5.036,-1.479 2.896,0 0,0 m 4.999,-21.259 -5.436,10.516 H -6.693 V -21.259 H -8.449 V 1.537 h 8.698 c 3.717,0 6.515,-2.126 6.515,-6.144 0,-3.351 -2.059,-5.579 -5.24,-6.136 l 5.525,-10.516 z" /></g><g
           transform="translate(212.5961,63.1199)"
           id="g80"><path
             id="path82"
             style="fill:#00726e;fill-opacity:1;fill-rule:nonzero;stroke:none"
             d="m 0,0 c -3.413,0 -5.526,0.918 -7.638,2.995 l 1.239,1.22 c 2.023,-2.063 3.734,-2.66 6.47,-2.66 3.582,0 5.82,1.716 5.82,4.661 0,1.368 -0.375,2.473 -1.212,3.19 -0.838,0.699 -1.427,0.945 -3.298,1.226 l -2.638,0.384 c -1.721,0.239 -3.119,0.837 -4.099,1.723 -1.176,1.025 -1.783,2.433 -1.783,4.154 0,3.849 2.701,6.287 7.113,6.287 2.753,0 4.58,-0.776 6.505,-2.438 L 5.4,19.543 c -1.381,1.292 -2.842,2.153 -5.525,2.153 -3.324,0 -5.294,-1.881 -5.294,-4.777 0,-1.293 0.383,-2.299 1.203,-2.897 0.767,-0.725 2.103,-1.224 3.333,-1.452 L 1.604,12.173 C 3.751,11.853 4.695,11.518 5.668,10.681 6.88,9.655 7.682,8.128 7.682,6.323 7.682,2.464 4.695,0 0,0" /></g><path
           id="path84"
           style="fill:#00726e;fill-opacity:1;fill-rule:nonzero;stroke:none"
           d="m 228.04,86.081 h 1.684 V 63.285 h -1.684 z" /><g
           transform="translate(245.0707,84.5437)"
           id="g86"><path
             id="path88"
             style="fill:#00726e;fill-opacity:1;fill-rule:nonzero;stroke:none"
             d="M 0,0 V -21.259 H -1.721 V 0 H -8.503 V 1.537 H 6.809 L 6.809,0 Z" /></g><g
           transform="translate(263.9096,72.6873)"
           id="g90"><path
             id="path92"
             style="fill:#00726e;fill-opacity:1;fill-rule:nonzero;stroke:none"
             d="M 0,0 V -9.402 H -1.702 V 0 l -6.694,13.394 h 1.854 l 5.758,-11.51 5.685,11.51 H 6.72 Z" /></g><g
           transform="translate(246.7816,308.3088)"
           id="g94"><path
             id="path96"
             style="fill:#00726e;fill-opacity:1;fill-rule:nonzero;stroke:none"
             d="m 0,0 v -82.273 c 0,-14.731 -8.877,-23.514 -22.36,-23.514 -13.546,0 -22.172,8.783 -22.172,23.514 v 74.315 c 0,4.385 -3.548,7.958 -7.959,7.958 h -11.888 -1.221 -3.974 v -0.026 h -18.377 -1.123 -4.17 c -0.624,0 -1.283,-0.09 -1.988,-0.241 -1.728,-0.428 -3.422,-1.426 -4.606,-2.941 l -41.03,-50.476 V 0 h -25.131 v -125.861 h 25.131 v 38.41 l 16.611,19.7 32.938,-58.11 h 29.177 l -45.593,76.984 36.521,43.579 c 0.294,0.281 0.694,0.442 1.078,0.267 0.321,-0.128 0.562,-0.449 0.562,-0.828 v -20.457 -17.395 -39.458 c 0,-27.083 20.852,-44.835 47.214,-44.835 26.307,0 47.188,17.752 47.188,44.835 l 0,83.169 z" /></g></g></g></g></svg>